<svg width="100" height="102" viewBox="0 0 100 102" fill="none" xmlns="http://www.w3.org/2000/svg">
<path d="M87.5 81.0588L69.375 66.3921M75.6872 43.9242C77.6089 60.7089 65.8006 75.8458 49.3128 77.7334C32.825 79.6211 17.9011 67.5447 15.9795 50.7601C14.0578 33.9755 25.866 18.8386 42.3539 16.9509C58.8417 15.0632 73.7655 27.1396 75.6872 43.9242Z" stroke="#2C2C2C" stroke-width="4" stroke-linecap="round" stroke-linejoin="round"/>
<g clip-path="url(#clip0_4_64)">
<path d="M40 68C30 71 30 63 26 62M54 74V66.26C54.075 65.3063 53.9462 64.3476 53.622 63.4476C53.2979 62.5476 52.7859 61.7268 52.12 61.04C58.4 60.34 65 57.96 65 47.04C64.9995 44.2477 63.9254 41.5624 62 39.54C62.9117 37.097 62.8472 34.3967 61.82 32C61.82 32 59.46 31.3 54 34.96C49.416 33.7176 44.584 33.7176 40 34.96C34.54 31.3 32.18 32 32.18 32C31.1528 34.3967 31.0883 37.097 32 39.54C30.0603 41.5774 28.985 44.2869 29 47.1C29 57.94 35.6 60.32 41.88 61.1C41.222 61.7799 40.7145 62.5908 40.3906 63.4798C40.0667 64.3689 39.9336 65.3161 40 66.26V74" stroke="#2C2C2C" stroke-width="4" stroke-linecap="round" stroke-linejoin="round"/>
</g>
<path d="M33.5 34.25C34.6225 36.535 35.62 38.7 36.3306 39.6213C36.9632 40.4413 37.7437 42.775 38.7637 45.3575C39.2174 46.5061 39.6237 47.12 40.0175 48.3031C40.5536 49.9139 41.5375 51.3275 42.4719 52.5531C42.9764 53.2149 43.6125 53.9025 43.7456 54.4494C43.8787 54.9963 43.5075 55.3675 43.2544 55.5794C42.6349 56.0979 41.67 55.7925 40.4656 55.8331C37.623 55.929 36.88 55.005 35.9 54.44C35.0622 53.957 34.1725 52.22 33.2975 50.2844C32.8074 49.2003 33.0825 47.3475 33.1456 44.975C33.1848 43.5035 32.9987 42.8762 33.2481 42.6062C33.3789 42.4646 33.4975 42.295 33.6025 42.0862C33.7075 41.8775 33.79 41.63 34.2037 42.4719C35.532 45.1746 36.2487 47.2913 36.6425 48.0138C38.4988 51.42 38.54 52.745 38.8325 53.6012C39.2497 54.8224 39.5 57.035 39.6656 58.0387C39.6962 58.2244 39.8725 58.29 40.0187 58.2913C40.3404 58.294 41.8612 58.0012 44.0269 57.7725C45.0491 57.6645 45.9925 57.5412 47.365 57.48C49.9919 57.3628 51.8725 56.0025 53.1375 55.4619C56.5718 53.9941 57.08 53.75 57.7244 53.6675C58.0468 53.6262 58.3275 53.42 58.5587 52.8606C59.1545 51.4196 59.29 49.88 59.54 48.5731C59.9022 46.68 59.5425 45.17 59.4175 44.2987C59.0914 42.0258 59.7475 40.9225 59.9787 39.8381C60.3272 38.2044 59.585 37.09 59.3756 36.045C59.3002 35.6684 59.25 35.2937 59.085 35.0431C58.2209 33.7306 55.7125 35.625 53.3456 35.9975C51.1917 36.3365 49.8762 36.875 49.4619 36.9162C48.711 36.991 47.0125 37.125 44.9519 37.1044C43.1591 37.0864 41.1825 36.75 38.7456 36.7294C37.876 36.722 37.7525 36.6675 38.1631 37.1619C38.5737 37.6562 39.5225 38.6875 40.7125 39.59C41.9025 40.4925 43.305 41.235 44.2131 41.6175C45.4437 42.1358 47.4837 41.3813 49.9419 40.3819C50.89 39.9964 51.1225 39.42 52.0544 38.7962C53.6149 37.7517 55.66 38 56.5981 38.0619C56.839 38.0778 55.0162 39.0762 52.2075 40.18C50.3441 40.9123 49.335 40.75 48.0744 41.245C46.9553 41.6844 44.9575 42.73 43.8131 43.2606C42.4825 43.8776 42.0437 43.875 41.7931 43.8544C41.2883 43.8128 44.7725 43.9975 47.8125 44.3725C50.5195 44.7064 52.6225 43.335 53.455 43.1462C54.4249 42.9264 55.745 42.375 56.4537 42.4369C56.6802 42.4566 54.52 43.74 51.025 45.3844C49.5317 46.0869 48.52 46.3275 46.9169 46.5794C43.1462 47.1718 40.9575 47.415 41.165 47.7887C41.6554 48.672 42.455 48.9975 44.6556 49.5406C46.3582 49.9608 47.9525 48.8362 49.3019 48.3162C50.9494 47.6813 52.9487 47.2963 54.4687 46.6088C55.6594 46.0702 56.83 46.25 57.3506 46.3944C57.5811 46.4583 57.5825 46.8275 57.5625 47.0381C57.5425 47.2488 57.46 47.3725 57.3556 47.4569C57.2512 47.5412 57.1275 47.5825 55.6406 48.0988C54.1537 48.615 51.3075 49.605 49.7175 50.1356C47.3408 50.9288 46.42 51.58 45.8769 52.04C45.585 52.2872 45.4587 52.665 45.4581 52.9562C45.4559 53.9957 48.4925 53.295 49.6612 52.8137C50.7713 52.3567 52.2437 52.6675 53.305 52.46C54.5293 52.2206 54.9125 50.92 56.1412 50.3144C56.415 50.2087 56.58 50.1675 56.7062 50.0431C56.8325 49.9188 56.915 49.7125 57 49.5" stroke="#2C2C2C" stroke-width="5" stroke-linecap="round"/>
<path d="M62 42.75C62.915 45.455 63.58 47.3625 63.6263 48.7256C63.6648 49.8611 62.21 49.9975 61.8763 50.6019C61.5782 51.1417 61.46 51.7475 61.065 52.6206C60.2755 54.3657 59.5425 54.8725 59.0231 55.3731C58.4163 55.9581 56.885 56.745 55.4419 57.6225C54.5159 58.1855 52.8825 58.495 50.0519 59.6213C49.1074 59.997 48.6275 60.125 46.5713 60.3325C45.7183 60.4186 44.8388 60.4987 44.0675 60.8512C42.7824 61.4386 43.335 63.58 43.2294 64.1644C43.08 64.9906 43.0425 65.995 42.8963 67.16C42.5325 70.0579 42.6675 71.41 42.6044 72.7663C42.5662 73.587 42.335 74.33 42.4563 75.1637C42.7814 77.3996 47.5375 75.2925 48.2269 75.0219C48.8161 74.7906 49.91 74.75 50.9719 74.6469C51.3848 74.6068 51.4975 74.3375 51.5613 74.1694C51.6672 73.89 51.7488 73.42 51.895 71.5794C52.0147 70.0733 51.835 67.3875 51.7719 65.8825C51.6598 63.2107 51.335 61.545 50.8975 61.1681C50.7742 61.0619 50.71 60.8375 50.5438 61.0819C49.2995 62.9109 49.5838 64.9075 49.315 67.0869C48.9539 70.0156 48.2088 71.9962 48.0431 72.7237C47.9594 73.0917 47.7125 73.41 47.5444 73.5594C47.3763 73.7088 47.2525 73.6675 46.8794 72.1819C46.5063 70.6963 45.8875 67.7675 45.5481 65.2481C45.2088 62.7287 45.1675 60.7075 45.2288 59.7281C45.29 58.7487 45.455 58.8725 45.5813 59.0187C45.7075 59.165 45.79 59.33 45.8325 59.3119C45.875 59.2937 45.875 59.0875 45.875 58.875" stroke="#2C2C2C" stroke-width="5" stroke-linecap="round"/>
<defs>
<clipPath id="clip0_4_64">
<rect width="48" height="48" fill="white" transform="translate(22 30)"/>
</clipPath>
</defs>
</svg>
